<?xml version="1.0" standalone="no"?>
<!DOCTYPE svg PUBLIC "-//W3C//DTD SVG 20010904//EN"
 "http://www.w3.org/TR/2001/REC-SVG-20010904/DTD/svg10.dtd">
<svg version="1.0" xmlns="http://www.w3.org/2000/svg"
 width="512.000000pt" height="512.000000pt" viewBox="0 0 512.000000 512.000000"
 preserveAspectRatio="xMidYMid meet">
<metadata>
Created by potrace 1.11, written by Peter Selinger 2001-2013
</metadata>
<g transform="translate(0.000000,512.000000) scale(0.100000,-0.100000)"
fill="#000000" stroke="none">
<path d="M2460 5106 c-70 -19 -116 -45 -170 -92 -50 -46 -94 -111 -105 -157
-4 -15 -10 -27 -14 -28 -3 0 -91 -2 -196 -3 -128 -1 -197 -6 -212 -14 -49 -27
-53 -51 -53 -348 l0 -276 34 -34 c22 -22 44 -34 63 -35 15 0 362 0 771 -1 539
0 750 3 770 11 59 25 62 42 62 341 0 291 -4 315 -53 342 -15 8 -80 13 -207 14
-224 2 -210 1 -210 18 0 22 -50 109 -83 145 -99 105 -265 154 -397 117z m174
-220 c56 -23 99 -80 109 -143 20 -124 -112 -240 -230 -203 -135 43 -179 190
-91 301 43 54 141 75 212 45z"/>
<path d="M900 4424 c-160 -43 -278 -154 -331 -312 l-23 -67 0 -1825 c1 -1676
2 -1829 17 -1880 50 -163 174 -282 342 -326 75 -20 3236 -20 3310 0 112 30
201 89 267 177 51 68 67 107 82 199 18 114 15 3613 -3 3690 -38 158 -165 293
-321 340 -54 16 -98 19 -331 20 l-269 1 0 -108 0 -109 258 0 c244 0 260 -2
308 -23 57 -25 90 -56 126 -116 l23 -40 2 -1795 c2 -1233 -1 -1810 -8 -1842
-16 -68 -67 -131 -136 -164 l-57 -28 -1596 0 -1595 -1 -58 28 c-66 33 -112 84
-131 147 -11 37 -13 364 -12 1845 l1 1800 25 49 c32 62 93 112 156 128 34 9
128 13 291 13 l240 -1 0 108 1 108 -262 -1 c-196 0 -275 -4 -316 -15z"/>
<path d="M1543 3784 c-116 -24 -222 -96 -294 -201 -115 -166 -95 -418 45 -564
41 -43 106 -101 106 -94 0 2 24 -7 53 -20 119 -55 260 -53 383 5 108 52 191
140 235 251 24 62 27 81 30 164 2 83 -9 129 -45 204 -94 195 -302 298 -513
255z m389 -221 c35 -31 23 -61 -60 -147 -88 -92 -150 -166 -178 -213 -10 -18
-22 -33 -26 -33 -4 0 -8 -5 -8 -12 0 -6 -12 -26 -26 -45 -21 -28 -32 -34 -57
-31 -28 3 -44 19 -130 133 -124 166 -130 177 -115 210 13 28 50 42 78 29 10
-5 51 -54 91 -108 l73 -99 21 28 c56 78 123 157 192 228 80 82 108 93 145 60z"/>
<path d="M2451 3373 c-29 -20 -28 -68 2 -88 20 -13 105 -14 641 -12 598 2 618
3 632 21 20 28 17 52 -7 75 -21 19 -38 20 -634 19 -522 0 -616 -2 -634 -15z"/>
<path d="M2226 2753 c-49 -25 -33 -97 22 -104 15 -2 174 -4 354 -3 216 1 325
-3 321 -9 -4 -6 -1 -7 8 -1 21 14 551 14 568 0 10 -7 13 -7 8 0 -4 7 26 11 98
11 81 0 107 4 119 16 22 21 20 60 -4 82 -18 16 -66 17 -745 19 -553 1 -732 -2
-749 -11z"/>
<path d="M1598 2545 c-2 -2 -20 -6 -40 -9 -212 -33 -374 -218 -384 -436 -12
-255 185 -472 438 -484 224 -11 421 135 478 354 52 195 -57 433 -237 519 -26
13 -55 27 -64 31 -24 12 -183 33 -191 25z m334 -232 c35 -32 23 -59 -74 -162
-51 -53 -106 -117 -123 -142 -16 -24 -34 -49 -40 -55 -5 -6 -23 -34 -40 -62
-32 -54 -69 -77 -98 -60 -17 9 -131 155 -199 255 -40 58 -41 93 -3 113 39 21
67 5 122 -72 29 -40 63 -86 76 -102 l23 -28 54 73 c62 84 102 129 180 205 59
57 89 67 122 37z"/>
<path d="M2450 2123 c-25 -18 -26 -64 -2 -86 17 -15 75 -17 635 -17 604 0 617
0 637 20 26 26 25 56 0 78 -19 16 -66 17 -636 18 -508 0 -618 -2 -634 -13z"/>
<path d="M2216 1497 c-23 -17 -24 -63 -2 -85 15 -15 80 -17 748 -17 694 0 733
1 755 18 28 22 30 58 5 80 -17 16 -84 17 -753 17 -595 0 -739 -3 -753 -13z"/>
<path d="M1400 868 c-24 -23 -25 -46 -4 -76 l15 -22 1145 0 c1131 0 1144 0
1164 20 11 11 20 29 20 39 0 18 -23 49 -38 52 -4 1 -519 3 -1145 3 -1093 2
-1138 1 -1157 -16z"/>
</g>
</svg>
